<mxfile host="app.diagrams.net" modified="2022-10-02T10:37:01.255Z" agent="5.0 (Windows NT 10.0; Win64; x64) AppleWebKit/537.36 (KHTML, like Gecko) Chrome/106.0.0.0 Safari/537.36" etag="dORsXVvcJU_TzDDwWx9u" version="20.4.0" type="github">
  <diagram id="hRZF-GelORyAe6EEvjSE" name="페이지-1">
    <mxGraphModel dx="1209" dy="749" grid="1" gridSize="10" guides="1" tooltips="1" connect="1" arrows="1" fold="1" page="1" pageScale="1" pageWidth="827" pageHeight="1169" math="0" shadow="0">
      <root>
        <mxCell id="0" />
        <mxCell id="1" parent="0" />
        <mxCell id="dxe1SCiPRbupxpEwIvUD-1" value="이용자" style="shape=umlActor;verticalLabelPosition=bottom;verticalAlign=top;html=1;outlineConnect=0;" vertex="1" parent="1">
          <mxGeometry x="50" y="200" width="30" height="60" as="geometry" />
        </mxCell>
        <mxCell id="dxe1SCiPRbupxpEwIvUD-2" value="게시판 서비스" style="shape=umlFrame;whiteSpace=wrap;html=1;width=90;height=30;" vertex="1" parent="1">
          <mxGeometry x="120" y="40" width="640" height="680" as="geometry" />
        </mxCell>
        <mxCell id="dxe1SCiPRbupxpEwIvUD-15" style="rounded=0;orthogonalLoop=1;jettySize=auto;html=1;exitX=0;exitY=0.5;exitDx=0;exitDy=0;entryX=1;entryY=0.3333333333333333;entryDx=0;entryDy=0;entryPerimeter=0;endArrow=none;endFill=0;" edge="1" parent="1" source="dxe1SCiPRbupxpEwIvUD-3" target="dxe1SCiPRbupxpEwIvUD-1">
          <mxGeometry relative="1" as="geometry" />
        </mxCell>
        <mxCell id="dxe1SCiPRbupxpEwIvUD-3" value="회원 가입" style="rounded=1;whiteSpace=wrap;html=1;arcSize=40;fontColor=#000000;fillColor=#ffffc0;strokeColor=#ff0000;" vertex="1" parent="1">
          <mxGeometry x="170" y="160" width="120" height="40" as="geometry" />
        </mxCell>
        <mxCell id="dxe1SCiPRbupxpEwIvUD-17" style="edgeStyle=none;rounded=0;orthogonalLoop=1;jettySize=auto;html=1;exitX=0;exitY=0.5;exitDx=0;exitDy=0;endArrow=none;endFill=0;" edge="1" parent="1" source="dxe1SCiPRbupxpEwIvUD-5">
          <mxGeometry relative="1" as="geometry">
            <mxPoint x="80" y="220" as="targetPoint" />
          </mxGeometry>
        </mxCell>
        <mxCell id="dxe1SCiPRbupxpEwIvUD-22" style="rounded=0;orthogonalLoop=1;jettySize=auto;html=1;exitX=1;exitY=0.5;exitDx=0;exitDy=0;entryX=0.5;entryY=1;entryDx=0;entryDy=0;dashed=1;endArrow=classic;endFill=1;" edge="1" parent="1" source="dxe1SCiPRbupxpEwIvUD-5" target="dxe1SCiPRbupxpEwIvUD-7">
          <mxGeometry relative="1" as="geometry" />
        </mxCell>
        <mxCell id="dxe1SCiPRbupxpEwIvUD-24" value="&amp;lt;&amp;lt;include&amp;gt;&amp;gt;" style="edgeLabel;html=1;align=center;verticalAlign=middle;resizable=0;points=[];" vertex="1" connectable="0" parent="dxe1SCiPRbupxpEwIvUD-22">
          <mxGeometry x="-0.2091" y="1" relative="1" as="geometry">
            <mxPoint as="offset" />
          </mxGeometry>
        </mxCell>
        <mxCell id="dxe1SCiPRbupxpEwIvUD-5" value="게시판 보기" style="rounded=1;whiteSpace=wrap;html=1;arcSize=40;fontColor=#000000;fillColor=#ffffc0;strokeColor=#ff0000;" vertex="1" parent="1">
          <mxGeometry x="160" y="360" width="120" height="40" as="geometry" />
        </mxCell>
        <mxCell id="dxe1SCiPRbupxpEwIvUD-18" style="edgeStyle=none;rounded=0;orthogonalLoop=1;jettySize=auto;html=1;exitX=0;exitY=0.5;exitDx=0;exitDy=0;endArrow=none;endFill=0;" edge="1" parent="1" source="dxe1SCiPRbupxpEwIvUD-6">
          <mxGeometry relative="1" as="geometry">
            <mxPoint x="80" y="220" as="targetPoint" />
          </mxGeometry>
        </mxCell>
        <mxCell id="dxe1SCiPRbupxpEwIvUD-23" style="edgeStyle=none;rounded=0;orthogonalLoop=1;jettySize=auto;html=1;exitX=1;exitY=0.5;exitDx=0;exitDy=0;entryX=0.5;entryY=1;entryDx=0;entryDy=0;dashed=1;endArrow=classic;endFill=1;" edge="1" parent="1" source="dxe1SCiPRbupxpEwIvUD-6" target="dxe1SCiPRbupxpEwIvUD-7">
          <mxGeometry relative="1" as="geometry" />
        </mxCell>
        <mxCell id="dxe1SCiPRbupxpEwIvUD-25" value="&amp;lt;&amp;lt;include&amp;gt;&amp;gt;" style="edgeLabel;html=1;align=center;verticalAlign=middle;resizable=0;points=[];" vertex="1" connectable="0" parent="dxe1SCiPRbupxpEwIvUD-23">
          <mxGeometry x="-0.1742" y="1" relative="1" as="geometry">
            <mxPoint as="offset" />
          </mxGeometry>
        </mxCell>
        <mxCell id="dxe1SCiPRbupxpEwIvUD-6" value="게시글 보기" style="rounded=1;whiteSpace=wrap;html=1;arcSize=40;fontColor=#000000;fillColor=#ffffc0;strokeColor=#ff0000;" vertex="1" parent="1">
          <mxGeometry x="170" y="530" width="120" height="40" as="geometry" />
        </mxCell>
        <mxCell id="dxe1SCiPRbupxpEwIvUD-16" style="rounded=0;orthogonalLoop=1;jettySize=auto;html=1;exitX=0;exitY=0.5;exitDx=0;exitDy=0;entryX=1;entryY=0.3333333333333333;entryDx=0;entryDy=0;entryPerimeter=0;endArrow=none;endFill=0;" edge="1" parent="1" source="dxe1SCiPRbupxpEwIvUD-7" target="dxe1SCiPRbupxpEwIvUD-1">
          <mxGeometry relative="1" as="geometry" />
        </mxCell>
        <mxCell id="dxe1SCiPRbupxpEwIvUD-19" value="&amp;lt;&amp;lt;include&amp;gt;&amp;gt;" style="edgeStyle=none;rounded=0;orthogonalLoop=1;jettySize=auto;html=1;exitX=1;exitY=0.5;exitDx=0;exitDy=0;endArrow=classic;endFill=1;dashed=1;" edge="1" parent="1" source="dxe1SCiPRbupxpEwIvUD-7" target="dxe1SCiPRbupxpEwIvUD-8">
          <mxGeometry relative="1" as="geometry" />
        </mxCell>
        <mxCell id="dxe1SCiPRbupxpEwIvUD-7" value="회원 로그인" style="rounded=1;whiteSpace=wrap;html=1;arcSize=40;fontColor=#000000;fillColor=#ffffc0;strokeColor=#ff0000;" vertex="1" parent="1">
          <mxGeometry x="260" y="90" width="120" height="40" as="geometry" />
        </mxCell>
        <mxCell id="dxe1SCiPRbupxpEwIvUD-8" value="인증" style="rounded=1;whiteSpace=wrap;html=1;arcSize=40;fontColor=#000000;fillColor=#ffffc0;strokeColor=#ff0000;" vertex="1" parent="1">
          <mxGeometry x="520" y="80" width="120" height="40" as="geometry" />
        </mxCell>
        <mxCell id="dxe1SCiPRbupxpEwIvUD-21" value="&amp;lt;&amp;lt;extend&amp;gt;&amp;gt;" style="edgeStyle=none;rounded=0;orthogonalLoop=1;jettySize=auto;html=1;exitX=0;exitY=0.5;exitDx=0;exitDy=0;entryX=1;entryY=0.5;entryDx=0;entryDy=0;dashed=1;endArrow=classic;endFill=1;" edge="1" parent="1" source="dxe1SCiPRbupxpEwIvUD-9" target="dxe1SCiPRbupxpEwIvUD-7">
          <mxGeometry relative="1" as="geometry" />
        </mxCell>
        <mxCell id="dxe1SCiPRbupxpEwIvUD-9" value="로그인 실패" style="rounded=1;whiteSpace=wrap;html=1;arcSize=40;fontColor=#000000;fillColor=#ffffc0;strokeColor=#ff0000;" vertex="1" parent="1">
          <mxGeometry x="520" y="170" width="120" height="40" as="geometry" />
        </mxCell>
        <mxCell id="dxe1SCiPRbupxpEwIvUD-26" style="rounded=0;orthogonalLoop=1;jettySize=auto;html=1;exitX=0;exitY=0.5;exitDx=0;exitDy=0;dashed=1;endArrow=classic;endFill=1;" edge="1" parent="1" source="dxe1SCiPRbupxpEwIvUD-10">
          <mxGeometry relative="1" as="geometry">
            <mxPoint x="280" y="380" as="targetPoint" />
          </mxGeometry>
        </mxCell>
        <mxCell id="dxe1SCiPRbupxpEwIvUD-28" value="&amp;lt;&amp;lt;extend&amp;gt;&amp;gt;" style="edgeLabel;html=1;align=center;verticalAlign=middle;resizable=0;points=[];" vertex="1" connectable="0" parent="dxe1SCiPRbupxpEwIvUD-26">
          <mxGeometry x="-0.3106" y="-1" relative="1" as="geometry">
            <mxPoint as="offset" />
          </mxGeometry>
        </mxCell>
        <mxCell id="dxe1SCiPRbupxpEwIvUD-10" value="게시판 정렬" style="rounded=1;whiteSpace=wrap;html=1;arcSize=40;fontColor=#000000;fillColor=#ffffc0;strokeColor=#ff0000;" vertex="1" parent="1">
          <mxGeometry x="414" y="300" width="120" height="40" as="geometry" />
        </mxCell>
        <mxCell id="dxe1SCiPRbupxpEwIvUD-27" style="edgeStyle=none;rounded=0;orthogonalLoop=1;jettySize=auto;html=1;exitX=0;exitY=0.5;exitDx=0;exitDy=0;entryX=1;entryY=0.5;entryDx=0;entryDy=0;dashed=1;endArrow=classic;endFill=1;" edge="1" parent="1" source="dxe1SCiPRbupxpEwIvUD-11" target="dxe1SCiPRbupxpEwIvUD-5">
          <mxGeometry relative="1" as="geometry" />
        </mxCell>
        <mxCell id="dxe1SCiPRbupxpEwIvUD-29" value="&amp;lt;&amp;lt;extend&amp;gt;&amp;gt;" style="edgeLabel;html=1;align=center;verticalAlign=middle;resizable=0;points=[];" vertex="1" connectable="0" parent="dxe1SCiPRbupxpEwIvUD-27">
          <mxGeometry x="-0.1701" y="2" relative="1" as="geometry">
            <mxPoint as="offset" />
          </mxGeometry>
        </mxCell>
        <mxCell id="dxe1SCiPRbupxpEwIvUD-11" value="게시판 검색" style="rounded=1;whiteSpace=wrap;html=1;arcSize=40;fontColor=#000000;fillColor=#ffffc0;strokeColor=#ff0000;" vertex="1" parent="1">
          <mxGeometry x="414" y="400" width="120" height="40" as="geometry" />
        </mxCell>
        <mxCell id="dxe1SCiPRbupxpEwIvUD-30" style="edgeStyle=none;rounded=0;orthogonalLoop=1;jettySize=auto;html=1;exitX=0;exitY=0.5;exitDx=0;exitDy=0;entryX=1;entryY=0.5;entryDx=0;entryDy=0;dashed=1;endArrow=classic;endFill=1;" edge="1" parent="1" source="dxe1SCiPRbupxpEwIvUD-12" target="dxe1SCiPRbupxpEwIvUD-6">
          <mxGeometry relative="1" as="geometry" />
        </mxCell>
        <mxCell id="dxe1SCiPRbupxpEwIvUD-12" value="게시글 쓰기, 수정, 삭제" style="rounded=1;whiteSpace=wrap;html=1;arcSize=40;fontColor=#000000;fillColor=#ffffc0;strokeColor=#ff0000;" vertex="1" parent="1">
          <mxGeometry x="404" y="520" width="140" height="40" as="geometry" />
        </mxCell>
        <mxCell id="dxe1SCiPRbupxpEwIvUD-31" style="edgeStyle=none;rounded=0;orthogonalLoop=1;jettySize=auto;html=1;exitX=0;exitY=0.5;exitDx=0;exitDy=0;dashed=1;endArrow=classic;endFill=1;" edge="1" parent="1" source="dxe1SCiPRbupxpEwIvUD-13">
          <mxGeometry relative="1" as="geometry">
            <mxPoint x="290" y="550" as="targetPoint" />
          </mxGeometry>
        </mxCell>
        <mxCell id="dxe1SCiPRbupxpEwIvUD-13" value="댓글 보기, 쓰기, 수정, 삭제" style="rounded=1;whiteSpace=wrap;html=1;arcSize=40;fontColor=#000000;fillColor=#ffffc0;strokeColor=#ff0000;" vertex="1" parent="1">
          <mxGeometry x="404" y="600" width="150" height="40" as="geometry" />
        </mxCell>
      </root>
    </mxGraphModel>
  </diagram>
</mxfile>
